PathFileType	4	(x/y/z)	S10_PSF_T07
DataRate	CameraRate	NumFrames	NumMarkers	Units	OrigDataRate	OrigDataStartFrame	OrigNumFrames
240	240	4	51	mm	240	216	431
Frame#	Time	Sternum			R.Acromium			L.Acromium			Top.Head			R.ASIS			L.ASIS			R.PSIS			L.PSIS			R.Great.Tro			L.Great.Tro			R.Iliac.Crest			L.Iliac.Crest			V.Sacral			R.Thigh.Upper.Post			R.Thigh.Lower.Ant			R.Thigh.Lower.Post			R.Thigh.Upper.Ant			R.Knee.Lat			R.Knee.Med			R.Shank.Upper.Post			R.Shank.Lower.Ant			R.Shank.Lower.Post			R.Shank.Upper.Ant			R.Ankle.Lat			R.Ankle.Med			R.Heel.Upper			R.Heel.Med			R.Heel.Lat			R.Toe.Lat			R.Toe.Med			R.Toe.Tip			L.Thigh.Upper.Post			L.Thigh.Lower.Ant			L.Thigh.Lower.Post			L.Thigh.Upper.Ant			L.Knee.Lat			L.Knee.Med			L.Shank.Upper.Post			L.Shank.Lower.Ant			L.Shank.Lower.Post			L.Shank.Upper.Ant			L.Ankle.Lat			L.Ankle.Med			L.Heel.Upper			L.Heel.Med			L.Heel.Lat			L.Toe.Lat			L.Toe.Med			L.Toe.Tip			Cervical.Spine			Back			
		X1	Y1	Z1	X2	Y2	Z2	X3	Y3	Z3	X4	Y4	Z4	X5	Y5	Z5	X6	Y6	Z6	X7	Y7	Z7	X8	Y8	Z8	X9	Y9	Z9	X10	Y10	Z10	X11	Y11	Z11	X12	Y12	Z12	X13	Y13	Z13	X14	Y14	Z14	X15	Y15	Z15	X16	Y16	Z16	X17	Y17	Z17	X18	Y18	Z18	X19	Y19	Z19	X20	Y20	Z20	X21	Y21	Z21	X22	Y22	Z22	X23	Y23	Z23	X24	Y24	Z24	X25	Y25	Z25	X26	Y26	Z26	X27	Y27	Z27	X28	Y28	Z28	X29	Y29	Z29	X30	Y30	Z30	X31	Y31	Z31	X32	Y32	Z32	X33	Y33	Z33	X34	Y34	Z34	X35	Y35	Z35	X36	Y36	Z36	X37	Y37	Z37	X38	Y38	Z38	X39	Y39	Z39	X40	Y40	Z40	X41	Y41	Z41	X42	Y42	Z42	X43	Y43	Z43	X44	Y44	Z44	X45	Y45	Z45	X46	Y46	Z46	X47	Y47	Z47	X48	Y48	Z48	X49	Y49	Z49	X50	Y50	Z50	X51	Y51	Z51	

216	0.89583	-156.85	1285	330.33	-256.38	1444.6	492.41	-288.99	1467.4	192.36	-327.59	1755.2	363.54	-207.34	1016.5	451.92	-224.93	1031.5	222.59	-414.98	1038	379.39	-415.91	1043.8	298.62	-274.07	938.5	528.19	-289.25	968.75	168.68	-297.06	1098.8	501.66	-293.62	1104.5	200.23	-436.56	1006.3	344.56	-266.85	724.17	508.66	-216.67	647.43	462.88	-277.49	636.39	493.65	-203.84	737.26	474.01	-292.2	512.55	449.32	-309.14	524.14	323.58	-391.32	296.78	447.29	-336.45	226.84	425.31	-400.86	223.59	438.38	-320.74	302.05	433.2	-400.87	115.98	412.48	-392.87	128.74	334.26	-470.75	69.678	367.52	-462.45	39.592	341.5	-465.97	46.927	403.12	-294.02	40.441	447.59	-264.56	41.06	337.38	-205.61	54.03	380.37	-224.25	691.23	158.99	-124.3	644.32	163.8	-185.48	604.31	174.15	-155.91	728.09	147.94	-137.07	541.5	172.64	-89.681	534.14	297.76	-288.99	396.61	190.67	-277.98	286.86	183.64	-325.07	327.96	197.08	-241.59	354.65	177.26	-364.22	204.63	200.1	-329.38	198.55	277.68	-423.92	209.31	258.19	-425.17	174.29	289.02	-441.7	183.72	227.29	-313.4	82.653	153.83	-265.82	67.115	250.57	-223.63	57.327	194.31	-350.94	1508.2	360.39	-439.25	1303.3	353.73
217	0.9	-151.76	1285.4	330.33	-250.67	1445.2	492.34	-284.41	1467.3	192.33	-322.24	1755.4	363.2	-202.17	1016.3	451.91	-219.9	1031.9	222.64	-409.87	1038.1	379.43	-410.89	1044	298.66	-269.32	938.28	528.13	-283.96	969.37	168.54	-291.56	1098.7	501.74	-288.59	1104.8	200.45	-431.45	1006.4	344.56	-263.9	724.08	508.55	-214.31	646.93	462.83	-275.22	636.39	493.54	-200.74	736.63	474.02	-291.22	512.65	449.48	-307.93	524.21	323.63	-390.85	297.14	447.33	-336.09	227.14	425.35	-400.5	223.97	438.39	-320.27	302.34	433.3	-400.63	116.27	412.46	-392.64	129.08	334.28	-470.61	69.992	367.36	-462.33	39.876	341.38	-465.88	47.271	402.98	-293.96	40.431	447.57	-264.47	41.021	337.37	-205.5	53.831	380.38	-217.37	692.18	158.51	-117.35	645.74	164.11	-178.31	605.47	173.93	-149.15	729.42	147.97	-129.51	542.65	172.93	-82.646	535.96	298.05	-278.66	394.16	190.61	-265.11	284.74	183.51	-313.16	324.71	196.89	-230.31	353.33	177.21	-349.32	200.4	199.65	-314.52	195.14	277.39	-409.56	203.31	257.63	-409.87	168.13	288.38	-426.45	177.22	226.65	-294.99	80.129	153.31	-247.25	65.724	250.17	-204.64	57.276	194.01	-345.74	1508.3	360.54	-434.05	1303.5	354.38
218	0.90417	-146.66	1285.6	330.32	-244.96	1445.7	492.26	-279.81	1467.1	192.31	-316.89	1755.6	362.86	-197	1016.1	451.88	-214.85	1032.1	222.66	-404.75	1038.1	379.44	-405.85	1044.1	298.67	-264.58	938.04	528.05	-278.68	969.92	168.39	-286.09	1098.5	501.79	-283.55	1105	200.64	-426.33	1006.4	344.53	-260.96	723.99	508.46	-211.95	646.41	462.8	-272.96	636.39	493.44	-197.64	735.99	474.04	-290.23	512.75	449.64	-306.71	524.29	323.69	-390.37	297.51	447.39	-335.72	227.46	425.41	-400.12	224.35	438.42	-319.78	302.64	433.41	-400.38	116.56	412.45	-392.4	129.43	334.3	-470.47	70.339	367.22	-462.2	40.199	341.28	-465.78	47.634	402.86	-293.9	40.419	447.56	-264.39	40.991	337.37	-205.38	53.635	380.39	-210.58	693.07	158.06	-110.5	647.06	164.43	-171.25	606.55	173.75	-142.48	730.65	148.03	-122.08	543.7	173.22	-75.757	537.67	298.36	-268.3	391.58	190.52	-252.18	282.56	183.37	-301.18	321.37	196.68	-219.01	351.94	177.17	-334.28	196.15	199.18	-299.53	191.71	277.1	-394.99	197.25	257.03	-394.35	161.94	287.71	-410.98	170.69	225.98	-276.45	77.651	152.82	-228.59	64.415	249.82	-185.59	57.314	193.76	-340.52	1508.4	360.68	-428.83	1303.6	355.01
219	0.90833	-141.53	1285.8	330.31	-239.25	1446.2	492.18	-275.18	1466.9	192.28	-311.54	1755.7	362.5	-191.82	1015.8	451.83	-209.78	1032.4	222.67	-399.62	1038.1	379.42	-400.79	1044.2	298.65	-259.85	937.76	527.96	-273.4	970.41	168.23	-280.64	1098.3	501.83	-278.49	1105.2	200.81	-421.21	1006.4	344.48	-258.03	723.89	508.38	-209.59	645.89	462.8	-270.71	636.38	493.35	-194.55	735.34	474.07	-289.25	512.86	449.82	-305.47	524.37	323.76	-389.87	297.88	447.47	-335.35	227.79	425.47	-399.73	224.75	438.46	-319.29	302.96	433.54	-400.13	116.87	412.45	-392.15	129.8	334.34	-470.35	70.72	367.09	-462.05	40.563	341.19	-465.67	48.017	402.74	-293.83	40.404	447.55	-264.3	40.969	337.38	-205.26	53.444	380.41	-203.87	693.88	157.64	-103.75	648.26	164.78	-164.3	607.56	173.62	-135.89	731.78	148.12	-114.77	544.65	173.53	-69.015	539.25	298.69	-257.92	388.9	190.4	-239.17	280.33	183.24	-289.13	317.94	196.45	-207.68	350.48	177.13	-319.09	191.87	198.7	-284.4	188.27	276.81	-380.2	191.14	256.41	-378.61	155.76	287.04	-395.27	164.14	225.29	-257.78	75.232	152.35	-209.85	63.196	249.5	-166.49	57.446	193.56	-335.3	1508.5	360.82	-423.61	1303.6	355.62
